<svg xmlns="http://www.w3.org/2000/svg" viewBox="0 0 377.64 102.29"><defs><style>.cls-1{fill:#231815;}.cls-2{fill:#ea5e5d;}</style></defs><title>資產 1</title><g id="圖層_2" data-name="圖層 2"><g id="圖層_1-2" data-name="圖層 1"><path class="cls-1" d="M0,92.34,8.94,80.75c6.67,4.91,13.07,7.69,20,7.69,7.47,0,10.8-3,10.8-7.44,0-5.29-7.74-7.68-15.61-10.58C14.67,67,3.73,61.6,3.73,49.89c0-12.73,10.94-21.67,27.75-21.67,10.94,0,19.21,4.28,25.48,8.69L48.15,48.12c-5.33-3.52-10.53-6-16.14-6-6.67,0-9.87,2.77-9.87,6.8,0,5.16,7.34,7,15.21,9.83C47.22,62.23,58.16,66.89,58.16,80c0,12.34-10.27,22.29-29.75,22.29A48.72,48.72,0,0,1,0,92.34Z"/><path class="cls-1" d="M60.29,65.38c0-23.56,17.87-37.16,38.15-37.16A33.75,33.75,0,0,1,120.18,36l-9.33,12c-3.74-3-7.21-4.66-11.48-4.66C88,43.34,80.3,52,80.3,65.38S88,87.18,98.84,87.18c5.34,0,10.4-2.4,14.54-5.67l7.74,12.22a38.38,38.38,0,0,1-24.41,8.56C76,102.29,60.29,88.69,60.29,65.38Z"/><path class="cls-1" d="M127.12,0h19.47V25.32l-.8,13.23c6-5.29,13.34-10.33,23.48-10.33,16.14,0,23.07,10.58,23.07,28.34v44h-19.6V58.83c0-10.83-3.21-14.74-10.54-14.74-6.14,0-10,2.77-15.61,7.94v48.5H127.12Z"/><path class="cls-1" d="M199.68,65.38c0-23.56,17.2-37.16,35.88-37.16s35.88,13.6,35.88,37.16c0,23.31-17.21,36.91-35.88,36.91S199.68,88.69,199.68,65.38Zm51.75,0c0-13.35-5.73-22-15.87-22s-15.87,8.69-15.87,22,5.73,21.8,15.87,21.8S251.43,78.61,251.43,65.38Z"/><path class="cls-1" d="M279.71,30h16l1.34,9.32h.53c6.54-6,14.14-11.08,24.28-11.08,16.14,0,23.08,10.58,23.08,28.34v44H325.33V58.83c0-10.83-3.2-14.74-10.54-14.74-6.14,0-10,2.77-15.61,7.94v48.5H279.71Z"/><circle class="cls-1" cx="223.27" cy="13.2" r="8.3"/><circle class="cls-1" cx="248.16" cy="13.2" r="8.3"/><circle class="cls-2" cx="365.87" cy="88.76" r="11.77"/></g></g></svg>