<svg id="圖層_1" data-name="圖層 1" xmlns="http://www.w3.org/2000/svg" viewBox="0 0 252.33 72.22"><defs><style>.cls-1{fill:#7e7e7f;}</style></defs><title>12313</title><path class="cls-1" d="M5.68,62.4,11.39,55c4.25,3.14,8.34,4.9,12.76,4.9,4.77,0,6.9-1.92,6.9-4.74,0-3.37-4.94-4.9-10-6.75-6-2.17-13-5.63-13-13.1,0-8.12,7-13.83,17.7-13.83A27.6,27.6,0,0,1,42,27l-5.62,7.15c-3.4-2.25-6.72-3.86-10.3-3.86-4.25,0-6.3,1.77-6.3,4.34,0,3.3,4.69,4.51,9.71,6.27,6.3,2.25,13.28,5.23,13.28,13.59,0,7.88-6.56,14.23-19,14.23A31.19,31.19,0,0,1,5.68,62.4Z"/><path class="cls-1" d="M44.15,45.19c0-15,11.41-23.71,24.35-23.71a21.5,21.5,0,0,1,13.87,5l-6,7.63c-2.38-1.93-4.59-3-7.32-3-7.23,0-12.17,5.54-12.17,14.06S61.86,59.1,68.75,59.1A15.27,15.27,0,0,0,78,55.48L83,63.28a24.49,24.49,0,0,1-15.58,5.47C54.2,68.75,44.15,60.07,44.15,45.19Z"/><path class="cls-1" d="M86.8,3.48H99.22V19.63l-.51,8.44c3.83-3.37,8.51-6.59,15-6.59,10.3,0,14.73,6.75,14.73,18.09V67.62H115.9V41c0-6.91-2-9.4-6.72-9.4-3.91,0-6.38,1.77-10,5.06v31H86.8Z"/><path class="cls-1" d="M133.1,45.19c0-15,11-23.71,22.89-23.71s22.9,8.68,22.9,23.71-11,23.56-22.9,23.56S133.1,60.07,133.1,45.19Zm33,0c0-8.52-3.66-14.06-10.13-14.06s-10.13,5.54-10.13,14.06S149.52,59.1,156,59.1,166.12,53.63,166.12,45.19Z"/><path class="cls-1" d="M184.16,22.61h10.22l.85,5.95h.34c4.17-3.86,9-7.08,15.49-7.08,10.3,0,14.72,6.75,14.72,18.09V67.62H213.27V41c0-6.91-2-9.4-6.72-9.4-3.92,0-6.39,1.77-10,5.06v31H184.16Z"/><circle class="cls-1" cx="148.15" cy="11.9" r="5.29"/><circle class="cls-1" cx="164.03" cy="11.9" r="5.29"/><circle class="cls-1" cx="239.14" cy="60.11" r="7.51"/></svg>